HIERARCHY
ROOT Hips
{
  OFFSET 179.979 97.3047 303.174
  CHANNELS 6 Xposition Yposition Zposition Zrotation Xrotation Yrotation
  JOINT Spine
  {
    OFFSET 0.000859786 9.92346 -1.22733
    CHANNELS 3 Zrotation Xrotation Yrotation
    JOINT Spine1
    {
      OFFSET 0 11.732 0
      CHANNELS 3 Zrotation Xrotation Yrotation
      JOINT Spine2
      {
        OFFSET 0 13.4588 0
        CHANNELS 3 Zrotation Xrotation Yrotation
        JOINT Neck
        {
          OFFSET 2.54812e-05 15.0278 0.877907
          CHANNELS 3 Zrotation Xrotation Yrotation
          JOINT Head
          {
            OFFSET 0 10.3218 3.14243
            CHANNELS 3 Zrotation Xrotation Yrotation
            End Site
            {
              OFFSET 0 0 0
            }
          }
        }
        JOINT LeftShoulder
        {
          OFFSET 6.10582 9.10629 0.757062
          CHANNELS 3 Zrotation Xrotation Yrotation
          JOINT LeftArm
          {
            OFFSET 0 12.9223 0
            CHANNELS 3 Zrotation Xrotation Yrotation
            JOINT LeftForeArm
            {
              OFFSET 0 27.4047 0
              CHANNELS 3 Zrotation Xrotation Yrotation
              JOINT LeftHand
              {
                OFFSET -1.28204e-05 27.6145 0
                CHANNELS 3 Zrotation Xrotation Yrotation
                End Site
                {
                  OFFSET 0 0 0
                }
              }
            }
          }
        }
        JOINT RightShoulder
        {
          OFFSET -6.1057 9.10638 0.757076
          CHANNELS 3 Zrotation Xrotation Yrotation
          JOINT RightArm
          {
            OFFSET 0 12.9223 0
            CHANNELS 3 Zrotation Xrotation Yrotation
            JOINT RightForeArm
            {
              OFFSET 0 27.4047 0
              CHANNELS 3 Zrotation Xrotation Yrotation
              JOINT RightHand
              {
                OFFSET 1.28428e-05 27.6145 1.44975e-05
                CHANNELS 3 Zrotation Xrotation Yrotation
                End Site
                {
                  OFFSET 0 0 0
                }
              }
            }
          }
        }
      }
    }
  }
  JOINT LeftUpLeg
  {
    OFFSET 9.12387 -6.65719 -0.0554031
    CHANNELS 3 Zrotation Xrotation Yrotation
    JOINT LeftLeg
    {
      OFFSET 0 40.5994 0
      CHANNELS 3 Zrotation Xrotation Yrotation
      JOINT LeftFoot
      {
        OFFSET 0 42.099 0
        CHANNELS 3 Zrotation Xrotation Yrotation
        JOINT LeftToeBase
        {
          OFFSET 0 15.7216 0
          CHANNELS 3 Zrotation Xrotation Yrotation
          End Site
          {
            OFFSET 0 0 0
          }
        }
      }
    }
  }
  JOINT RightUpLeg
  {
    OFFSET -9.12503 -6.6556 -0.0553527
    CHANNELS 3 Zrotation Xrotation Yrotation
    JOINT RightLeg
    {
      OFFSET 0 40.5994 0
      CHANNELS 3 Zrotation Xrotation Yrotation
      JOINT RightFoot
      {
        OFFSET 0 42.099 0
        CHANNELS 3 Zrotation Xrotation Yrotation
        JOINT RightToeBase
        {
          OFFSET 0 15.7216 0
          CHANNELS 3 Zrotation Xrotation Yrotation
          End Site
          {
            OFFSET 0 0 0
          }
        }
      }
    }
  }
}
MOTION
Frames:	13
Frame Time:	0.0333333
-21.6129 98.7693 -245.569 0.787699 -4.86207 -0.557924 -0.00667938 -5.91395 0.257006 0.0257984 2.14956 0.510484 -0.0312359 8.74379 0.512765 0.241765 23.0968 0.787164 -1.6378 -17.6894 1.06409 -87.5762 -19.1568 89.8673 20.7497 -2.28912 -3.75547 1.31269 -12.1773 -0.450109 -11.7131 6.38339 -6.9886 90.7911 -11.9712 -90.5575 -10.0596 0.675658 10.3712 -8.65558 -17.5078 0.717795 12.5844 -8.10961 2.55592 -178.027 -5.46868 -0.964429 -3.43515 -8.66732 -3.57356 15.5796 75.6692 -12.0733 -0.965278 26.367 -3.60229 175.863 -2.69593 -3.71665 2.30832 -13.0669 1.78061 -8.11651 77.1835 6.99109 0.963536 26.3682 3.55537 
-21.6127 98.7694 -245.569 0.78767 -4.86501 -0.557926 -0.00667938 -5.91395 0.257006 0.0258296 2.14606 0.510482 -0.0312042 8.74028 0.512761 0.223004 23.1267 0.787452 -1.6225 -17.6878 1.05608 -87.5835 -19.1618 89.8652 20.7595 -2.31747 -3.74656 1.31075 -12.2145 -0.45395 -11.641 6.4509 -6.9786 90.7912 -11.9628 -90.5575 -10.0261 0.659677 10.38 -8.62732 -17.5078 0.717795 12.555 -8.06928 2.6104 -178.029 -5.46361 -0.983539 -3.43208 -8.6822 -3.56168 15.555 75.6777 -12.0509 -0.965278 26.367 -3.60229 175.863 -2.692 -3.71664 2.30244 -13.0784 1.78046 -8.12194 77.1876 6.99974 0.963536 26.3682 3.55537 
-21.6121 98.7697 -245.57 0.788176 -4.87186 -0.551184 -0.00667938 -5.91395 0.257006 0.0258989 2.13828 0.51048 -0.0311339 8.73252 0.51275 0.186868 23.1927 0.788056 -1.59541 -17.676 1.04071 -87.5936 -19.177 89.8628 20.7877 -2.38273 -3.73257 1.32369 -12.2969 -0.462864 -11.495 6.64189 -6.91162 90.7913 -11.9486 -90.5574 -9.94602 0.616728 10.3974 -8.57146 -17.4961 0.717749 12.4629 -8.00869 2.69775 -178.032 -5.44896 -1.03132 -3.42362 -8.72012 -3.52996 15.4846 75.6982 -11.9817 -0.965278 26.367 -3.60229 175.863 -2.68294 -3.7161 2.28958 -13.1062 1.77941 -8.13514 77.1976 7.0207 0.963536 26.3682 3.55537 
-21.6117 98.7699 -245.571 0.788832 -4.87991 -0.542575 -0.00667938 -5.91395 0.257006 0.0205873 2.12996 0.510479 -0.0365946 8.72417 0.513377 0.196485 23.2508 0.778983 -1.59981 -17.6507 1.03607 -87.5799 -19.1951 89.8616 20.813 -2.43353 -3.72129 1.37293 -12.3514 -0.469227 -11.4658 6.71658 -6.83195 90.7911 -11.9643 -90.5575 -9.91977 0.580642 10.4106 -8.53552 -17.4747 0.717665 12.4094 -8.04163 2.7054 -178.035 -5.44202 -1.0692 -3.41589 -8.74916 -3.50256 15.4242 75.7159 -11.9225 -0.965278 26.367 -3.60229 175.863 -2.68165 -3.72684 2.29177 -13.1287 1.79162 -8.16598 77.2052 7.05751 0.963536 26.3682 3.55537 
-21.6114 98.7701 -245.576 0.789328 -4.89005 -0.535633 -0.00667938 -5.91395 0.257006 0.0142171 2.12151 0.510479 -0.0432052 8.71573 0.514136 0.220606 23.2984 0.768667 -1.61359 -17.6116 1.03704 -87.5648 -19.2205 89.8601 20.8378 -2.48324 -3.70778 1.43854 -12.3584 -0.470868 -11.4769 6.53192 -6.83833 90.7909 -12.003 -90.5578 -9.94436 0.555312 10.4283 -8.53867 -17.4738 0.717661 12.4431 -8.07068 2.63506 -178.036 -5.43392 -1.07902 -3.41171 -8.77738 -3.49318 15.4064 75.728 -11.9053 -0.965278 26.367 -3.60229 175.862 -2.68375 -3.75187 2.29539 -13.1438 1.8111 -8.22203 77.2087 7.11327 0.963536 26.3682 3.55537 
-21.611 98.7686 -245.579 0.785902 -4.90283 -0.534029 -0.00666002 -5.91825 0.257008 0.00874744 2.11279 0.510478 -0.0489038 8.70703 0.514791 0.236673 23.337 0.762102 -1.62069 -17.5618 1.03843 -87.557 -19.2523 89.858 20.8583 -2.53088 -3.69166 1.5129 -12.3458 -0.473119 -11.5099 6.41691 -6.98389 90.7906 -12.0449 -90.5581 -9.99768 0.549554 10.4535 -8.58359 -17.4838 0.7177 12.5394 -8.10771 2.61427 -178.032 -5.43035 -1.0553 -3.41341 -8.80026 -3.5069 15.4429 75.7345 -11.9455 -0.965278 26.367 -3.60229 175.868 -2.68701 -3.78305 2.29939 -13.1555 1.83105 -8.28038 77.2095 7.17113 0.963536 26.3682 3.55537 
-21.6146 98.7669 -245.581 0.778838 -4.91627 -0.542324 -0.00663623 -5.92352 0.257011 0.00448588 2.10232 0.510477 -0.0533251 8.69652 0.515297 0.235113 23.3745 0.759928 -1.61077 -17.5107 1.03557 -87.5592 -19.2863 89.8554 20.8723 -2.56677 -3.67187 1.59055 -12.3486 -0.475601 -11.546 6.35176 -7.0751 90.7926 -12.0692 -90.5578 -10.0532 0.571483 10.4866 -8.64787 -17.4922 0.720086 12.599 -8.27182 2.66302 -178.022 -5.44278 -1.01739 -3.4208 -8.8074 -3.534 15.5137 75.7389 -12.0222 -0.965278 26.367 -3.60229 175.879 -2.6892 -3.81663 2.30247 -13.1658 1.84656 -8.32661 77.2096 7.21601 0.963536 26.3682 3.55537 
-21.6203 98.7652 -245.583 0.768013 -4.92868 -0.563375 -0.00660326 -5.93083 0.257014 0.000455304 2.08772 0.510473 -0.0572058 8.68194 0.51574 0.212428 23.426 0.753865 -1.57321 -17.4713 1.01722 -87.5705 -19.304 89.854 20.865 -2.57385 -3.64563 1.67034 -12.3854 -0.47763 -11.5809 6.32299 -7.03097 90.8013 -12.0578 -90.5593 -10.0827 0.623808 10.5299 -8.73565 -17.5311 0.725897 12.6104 -8.40231 2.72153 -178.006 -5.45434 -0.983894 -3.432 -8.81567 -3.56592 15.596 75.7438 -12.1113 -0.965278 26.367 -3.60229 175.895 -2.69021 -3.84863 2.30362 -13.178 1.85403 -8.35051 77.2093 7.23963 0.963536 26.3682 3.55537 
-21.6278 98.7634 -245.585 0.754527 -4.9398 -0.595813 -0.00656654 -5.93898 0.257018 -0.0034699 2.07142 0.51047 -0.0615179 8.66563 0.516232 0.164322 23.4768 0.745501 -1.50315 -17.4401 0.982864 -87.5928 -19.3145 89.8528 20.8531 -2.55123 -3.58268 1.72749 -12.414 -0.479376 -11.5938 6.1278 -6.87629 90.8221 -12.023 -90.5639 -10.0958 0.703293 10.5377 -8.80724 -17.5582 0.730577 12.5605 -8.51196 2.73007 -177.986 -5.45913 -0.968711 -3.44496 -8.83221 -3.59381 15.6681 75.7513 -12.19 -0.965278 26.367 -3.60229 175.914 -2.68974 -3.88792 2.30356 -13.1909 1.85949 -8.36856 77.209 7.25733 0.963536 26.3682 3.55537 
-21.6364 98.7616 -245.588 0.739599 -4.95083 -0.636005 -0.00653463 -5.94605 0.257021 -0.00753082 2.05726 0.515905 -0.0662085 8.65146 0.521717 0.0918599 23.5234 0.743542 -1.40397 -17.4276 0.942275 -87.6262 -19.3287 89.851 20.8466 -2.52091 -3.51144 1.75994 -12.3869 -0.479011 -11.5398 5.89069 -6.95811 90.8504 -11.9878 -90.5688 -10.1286 0.805123 10.5384 -8.83311 -17.5638 0.729703 12.5116 -8.53903 2.68198 -177.964 -5.46957 -0.965802 -3.45913 -8.84513 -3.61855 15.7338 75.7609 -12.2622 -0.965278 26.367 -3.60229 175.937 -2.68541 -3.92974 2.30157 -13.2059 1.86123 -8.37402 77.2089 7.26291 0.963536 26.3682 3.55537 
-21.6457 98.7596 -245.593 0.723482 -4.95968 -0.683664 -0.00660217 -5.94844 0.26141 -0.0115131 2.04829 0.524599 -0.0715345 8.6425 0.530491 0.0491313 23.5465 0.74181 -1.32899 -17.4265 0.916418 -87.6517 -19.3668 89.8477 20.8765 -2.45439 -3.39834 1.7557 -12.3288 -0.473111 -11.4394 5.61336 -7.24751 90.8858 -11.9714 -90.5721 -10.1971 0.914527 10.5351 -8.79672 -17.5203 0.726445 12.4395 -8.63263 2.68805 -177.94 -5.46827 -0.969802 -3.47335 -8.86847 -3.6441 15.8001 75.7711 -12.3357 -0.965278 26.367 -3.60229 175.961 -2.67256 -3.97193 2.29591 -13.2269 1.86026 -8.37338 77.2096 7.26246 0.963536 26.3682 3.55537 
-21.6553 98.7576 -245.601 0.706393 -4.96524 -0.732569 -0.0067355 -5.94882 0.268983 -0.0159622 2.04463 0.539822 -0.0774395 8.63879 0.545893 0.0461275 23.5349 0.727246 -1.28255 -17.4191 0.896212 -87.667 -19.4228 89.8429 20.9474 -2.34844 -3.30148 1.6994 -12.2615 -0.465024 -11.2584 5.505 -7.4547 90.9186 -12.0023 -90.5706 -10.2915 1.03293 10.5283 -8.69618 -17.4562 0.722556 12.36 -8.71478 2.82806 -177.915 -5.46402 -0.97403 -3.48728 -8.89401 -3.67029 15.8694 75.7836 -12.4131 -0.965278 26.367 -3.60229 175.987 -2.65213 -4.00964 2.28824 -13.252 1.85503 -8.36732 77.2111 7.25665 0.963536 26.3682 3.55537 
-21.6648 98.7555 -245.612 0.690091 -4.97289 -0.773156 -0.00685455 -5.94811 0.275463 -0.0212 2.04676 0.552987 -0.0842116 8.64093 0.5592 0.0622721 23.5032 0.709802 -1.25803 -17.4098 0.882795 -87.6815 -19.4904 89.8381 21.01 -2.23189 -3.25043 1.64224 -12.1953 -0.457171 -11.1048 5.43577 -7.69206 90.9391 -12.0411 -90.5686 -10.3796 1.16081 10.5741 -8.59131 -17.3901 0.720396 12.3339 -8.67765 3.01492 -177.892 -5.45052 -0.988394 -3.49504 -8.92795 -3.68567 15.9061 75.7946 -12.4582 -0.965278 26.367 -3.60229 176.013 -2.6342 -4.0353 2.27946 -13.2762 1.84729 -8.34911 77.2128 7.23825 0.963536 26.3682 3.55537 
